<svg width="40" height="40" viewBox="0 0 40 40" fill="none" xmlns="http://www.w3.org/2000/svg">
<mask id="path-1-inside-1_1_266" fill="white">
<path d="M0 0H40V40H0V0Z"/>
</mask>
<path d="M0 0V-1H-1V0H0ZM40 0H41V-1H40V0ZM40 40V41H41V40H40ZM0 40H-1V41H0V40ZM0 0V1H40V0V-1H0V0ZM40 0H39V40H40H41V0H40ZM40 40V39H0V40V41H40V40ZM0 40H1V0H0H-1V40H0Z" fill="#3A6D95" fill-opacity="0.3" mask="url(#path-1-inside-1_1_266)"/>
<path d="M28.1675 18.3333C28.5481 20.2011 28.2769 22.1428 27.399 23.8348C26.5212 25.5268 25.0899 26.8667 23.3438 27.6311C21.5976 28.3955 19.6422 28.5381 17.8036 28.0353C15.965 27.5325 14.3543 26.4145 13.2402 24.8678C12.1261 23.3212 11.5759 21.4394 11.6814 19.5361C11.7868 17.6329 12.5416 15.8234 13.8197 14.4093C15.0979 12.9952 16.8222 12.062 18.7051 11.7654C20.588 11.4687 22.5157 11.8265 24.1667 12.7792" stroke="#3A6D95" stroke-width="1.66667" stroke-linecap="round" stroke-linejoin="round"/>
<path d="M17.5 19.1666L20 21.6666L28.3333 13.3333" stroke="#3A6D95" stroke-width="1.66667" stroke-linecap="round" stroke-linejoin="round"/>
</svg>
